<svg width="98" height="20" viewBox="0 0 98 20" fill="none" xmlns="http://www.w3.org/2000/svg">
    <g clip-path="url(#clip0_1262_5080)">
        <path d="M93.5741 7.46258V5.58598H91.5506C91.2584 5.58598 91.1213 5.75027 91.1213 6.00949V8.50311C91.1213 10.6097 89.7867 12.2125 87.3051 12.9025V17.3384H82.9549V12.9025C80.5094 12.2271 79.0918 10.617 79.0918 8.50311V2.07375H83.3445V8.1234C83.3445 8.72581 83.8098 9.38299 85.1048 9.38299C86.3997 9.38299 86.865 8.682 86.865 8.06499V5.52757C86.865 3.36254 87.9291 1.87295 90.4684 1.87295H93.5705V0L98 3.73129L93.5705 7.46258H93.5741Z" fill="#00913A"/>
        <path d="M55.1698 16.3782C54.2609 17.1194 53.0922 17.5976 51.6241 17.5976C47.7104 17.5976 46.127 15.3413 46.127 12.866V2.07373H50.4193V12.7674C50.4193 13.2384 50.6899 13.8189 51.7179 13.8189C52.7459 13.8189 53.0381 13.2676 53.0381 12.7674V2.07373H57.3269V12.7674C57.3269 13.253 57.5902 13.8189 58.6326 13.8189C59.675 13.8189 59.9456 13.2749 59.9456 12.7674V2.07373H64.238V12.866C64.238 15.3377 62.521 17.5976 58.8635 17.5976C57.3016 17.5976 56.0896 17.1194 55.1662 16.3782" fill="#00913A"/>
        <path d="M73.5658 17.3385V12.8806H70.103V17.3385H65.7349V6.40016C65.7349 3.68384 68.0073 1.62469 71.8344 1.62469C75.6615 1.62469 77.8726 3.66924 77.8726 6.40016V17.3385H73.5658ZM73.5694 6.66303C73.5694 5.88537 73.0283 5.34138 71.838 5.34138C70.6477 5.34138 70.1066 5.89268 70.1066 6.66303V9.47427H73.5694V6.66303Z" fill="#00913A"/>
        <path d="M89.7724 15.743C90.2268 15.743 90.5948 16.119 90.5948 16.5754C90.5948 17.0318 90.2268 17.4078 89.7724 17.4078C89.3179 17.4078 88.95 17.0318 88.95 16.5754C88.95 16.119 89.3179 15.743 89.7724 15.743ZM89.7724 17.2654C90.1439 17.2654 90.4505 16.9551 90.4505 16.5754C90.4505 16.1957 90.1439 15.889 89.7724 15.889C89.4008 15.889 89.0942 16.1994 89.0942 16.5754C89.0942 16.9515 89.4008 17.2654 89.7724 17.2654ZM89.9996 16.5937C90.0717 16.6156 90.1186 16.6667 90.1222 16.7543V16.9661H89.9671V16.8091C89.9671 16.7141 89.9058 16.663 89.8048 16.663H89.6173V16.9661H89.4622V16.1555H89.8697C90.0176 16.1555 90.1295 16.2359 90.1295 16.3782C90.1295 16.4768 90.0934 16.5389 89.996 16.5864V16.5937H89.9996ZM89.9635 16.4111C89.9635 16.3271 89.9022 16.2906 89.8301 16.2906H89.6209V16.5352H89.8301C89.9058 16.5352 89.9635 16.4951 89.9635 16.4148" fill="#00913A"/>
        <path d="M25.3504 12.5374C25.3504 13.0486 24.7661 13.2311 24.2214 13.2311C23.9545 13.2311 23.0924 13.18 23.0924 12.5374V1.82184H17.7251V12.8843C17.7251 15.4472 19.7342 17.8678 24.2214 17.8678C27.4497 17.8678 30.7177 16.2395 30.7177 12.8843V1.82184H25.3504V12.5374Z" fill="#F7B52C"/>
        <path d="M11.8744 7.43704C11.1458 7.09019 10.6336 6.83097 10.3631 6.68859C10.0384 6.51699 10.0096 6.46588 10.0096 6.40016C10.0096 6.3527 10.0492 6.31254 10.1214 6.31254L16.1993 6.40746V1.85836L15.7989 1.85105C15.7989 1.85105 11.7626 1.78899 10.6733 1.77803C10.1863 1.77438 9.45048 1.79629 8.98156 1.85836C6.35923 2.2052 4.66392 3.99052 4.66392 6.40381C4.66392 9.46697 6.82094 10.5002 9.32062 11.6977L10.2332 12.1322C11.0304 12.5119 11.5137 12.7382 11.5137 12.9208C11.5137 12.9902 11.4668 13.0449 11.337 13.0449L5.72439 12.9609V10.4381L0 15.2209L5.71718 20V17.5028C6.82094 17.521 9.82561 17.5648 11.1133 17.5831C11.6075 17.5904 12.5453 17.5575 13.1008 17.4443C15.5103 16.9405 16.8918 15.2574 16.8918 12.8295C16.8918 9.83207 14.8971 8.87917 11.878 7.43704H11.8744Z" fill="#F7B52C"/>
        <path d="M43.3495 9.24426C44.3162 8.4885 44.7419 7.45893 44.7419 6.27967C44.7419 3.43557 42.7147 1.82549 39.573 1.82184H32.0847V17.6123H39.8146C43.0934 17.6123 45.1278 15.6955 45.1278 12.6068C45.1278 11.1501 44.6012 10.0402 43.3495 9.24426ZM36.5719 5.19898H38.8732C39.8255 5.19898 40.2872 5.8233 40.2872 6.82732C40.2872 7.83133 39.8291 8.45565 38.8732 8.45565H36.5719V5.19533V5.19898ZM39.0788 14.1694H36.5719V10.7375H39.0788C40.114 10.7375 40.601 11.3801 40.601 12.4498C40.601 13.5195 40.114 14.1694 39.0788 14.1694Z" fill="#F7B52C"/>
    </g>
    <defs>
        <clipPath id="clip0_1262_5080">
            <rect width="98" height="20" fill="white"/>
        </clipPath>
    </defs>
</svg>
